<?xml version="1.0" standalone="no"?>
<!DOCTYPE svg PUBLIC "-//W3C//DTD SVG 20010904//EN"
 "http://www.w3.org/TR/2001/REC-SVG-20010904/DTD/svg10.dtd">
<svg version="1.0" xmlns="http://www.w3.org/2000/svg"
 width="256.000000pt" height="256.000000pt" viewBox="0 0 256.000000 256.000000"
 preserveAspectRatio="xMidYMid meet">

<g transform="translate(0.000000,256.000000) scale(0.100000,-0.100000)"
fill="#000000" stroke="none">
<path d="M0 1280 l0 -1280 1280 0 1280 0 0 1280 0 1280 -1280 0 -1280 0 0
-1280z m914 267 c36 -26 -4 -84 -41 -61 -24 15 -27 38 -8 58 20 19 26 20 49 3z
m6 -138 l0 -31 35 31 c48 42 118 44 164 5 l31 -26 0 26 c0 22 4 26 29 26 17 0
33 -5 37 -11 4 -8 9 -8 17 0 20 20 76 13 102 -14 l25 -24 0 24 c0 22 5 25 35
25 21 0 35 -5 35 -12 0 -9 3 -9 12 0 20 20 85 15 108 -8 17 -17 20 -33 20
-101 l0 -80 -32 3 -33 3 -5 70 c-4 57 -8 70 -23 73 -34 7 -47 -17 -47 -83 l0
-63 -70 0 -70 0 0 63 c0 68 -14 91 -49 80 -17 -5 -21 -16 -23 -73 l-3 -67 -32
-3 c-31 -3 -33 -1 -33 30 -1 27 -2 30 -11 15 -15 -26 -63 -47 -108 -47 -31 0
-49 7 -76 31 l-35 31 0 -31 c0 -28 -3 -31 -30 -31 l-30 0 0 100 0 100 30 0
c27 0 30 -3 30 -31z m804 -111 c15 -24 -3 -52 -37 -56 -33 -4 -53 28 -37 59
14 25 58 23 74 -3z m-739 -133 c0 -14 -2 -25 -6 -25 -8 0 -18 48 -11 55 9 8
15 -4 17 -30z m-217 8 c2 -8 -5 -13 -18 -13 -12 0 -18 -4 -15 -10 4 -6 11 -7
17 -4 7 5 8 2 3 -5 -11 -19 -40 12 -31 34 7 18 37 17 44 -2z m119 -13 c3 -25
3 -25 -7 -2 -5 12 -12 22 -15 22 -3 0 -10 -10 -15 -22 -8 -22 -9 -22 -9 -2 -2
42 42 46 46 4z m221 13 c2 -7 -5 -13 -15 -14 -16 0 -16 -1 2 -9 19 -8 19 -9
-2 -9 -25 -1 -37 13 -29 35 7 18 37 15 44 -3z m89 -8 c-7 -13 -14 -20 -15 -14
-5 14 6 39 17 39 5 0 4 -11 -2 -25z m137 9 c7 -19 -1 -34 -19 -34 -7 0 -16 -6
-18 -12 -3 -7 -6 4 -6 25 -1 30 3 37 18 37 10 0 22 -7 25 -16z m93 -9 c-7 -13
-14 -20 -15 -14 -5 14 6 39 17 39 5 0 4 -11 -2 -25z m195 18 c-10 -4 -8 -8 5
-18 10 -7 15 -17 11 -20 -10 -10 -41 23 -33 35 3 5 12 10 18 9 8 0 8 -2 -1 -6z
m132 -8 c4 -10 -1 -15 -15 -15 -11 0 -17 -5 -14 -10 4 -6 11 -7 17 -4 7 4 8 2
4 -4 -10 -16 -36 -3 -36 17 0 32 33 44 44 16z m97 6 c-11 -7 -10 -11 5 -19 10
-6 16 -14 12 -17 -10 -10 -41 23 -33 35 3 5 12 10 18 10 8 0 7 -3 -2 -9z
m-321 -21 c0 -11 -4 -20 -9 -20 -6 0 -9 9 -8 20 1 11 5 20 9 20 4 0 8 -9 8
-20z m-398 -749 c-11 -7 -10 -9 3 -15 20 -7 10 -26 -13 -26 -13 0 -14 2 -3 9
9 6 10 11 2 15 -17 11 -13 26 7 26 13 0 14 -2 4 -9z m35 -28 c-3 -10 -5 -4 -5
12 0 17 2 24 5 18 2 -7 2 -21 0 -30z m67 21 c9 -23 7 -34 -4 -34 -5 0 -10 9
-10 20 0 27 -18 25 -23 -2 -4 -20 -4 -19 -6 5 -1 20 4 27 18 27 10 0 22 -7 25
-16z m42 4 c-19 -11 -19 -11 -1 -24 16 -12 16 -14 3 -14 -9 0 -20 5 -23 10
-11 17 3 40 22 40 17 -1 16 -2 -1 -12z m79 1 c4 -6 -3 -13 -16 -16 -22 -6 -22
-7 -3 -14 16 -6 16 -8 2 -8 -21 -1 -32 15 -24 34 6 17 32 20 41 4z m-195 -84
c0 -8 -5 -17 -11 -21 -8 -4 -7 -9 2 -15 10 -6 8 -9 -9 -9 -22 0 -22 1 -6 25
15 23 13 30 -9 26 -5 -1 -6 3 -2 8 8 14 35 2 35 -14z m58 -13 c3 -26 0 -32
-16 -32 -25 0 -35 25 -21 51 15 28 33 18 37 -19z m60 -3 c-2 -21 -7 -29 -22
-29 -18 0 -18 1 -3 18 22 24 22 43 0 36 -15 -5 -15 -4 -3 4 20 15 31 5 28 -29z
m72 2 c0 -26 -21 -43 -37 -30 -17 14 -17 56 0 62 16 6 37 -12 37 -32z"/>
<path d="M1012 1374 c-40 -28 -22 -74 29 -74 41 0 56 60 20 80 -25 13 -22 13
-49 -6z"/>
<path d="M1300 1166 c0 -9 7 -16 16 -16 17 0 14 22 -4 28 -7 2 -12 -3 -12 -12z"/>
<path d="M1190 310 c0 -11 5 -20 10 -20 6 0 10 9 10 20 0 11 -4 20 -10 20 -5
0 -10 -9 -10 -20z"/>
<path d="M1317 333 c-11 -10 -8 -43 3 -43 15 0 24 30 13 41 -5 5 -12 6 -16 2z"/>
</g>
</svg>
